<mxfile host="app.diagrams.net" modified="2023-06-05T04:59:17.615Z" agent="Mozilla/5.0 (Macintosh; Intel Mac OS X 10_15_7) AppleWebKit/537.36 (KHTML, like Gecko) Chrome/114.0.0.0 Safari/537.36" version="21.2.9" etag="PPDYXiPCDKKofP_8EOoW" type="github">
  <diagram name="페이지-1" id="WJNhYpdTPxrfTe7DXiIR">
    <mxGraphModel>
      <root>
        <mxCell id="0" />
        <mxCell id="1" parent="0" />
      </root>
    </mxGraphModel>
  </diagram>
</mxfile>
